<?xml version="1.0" encoding="UTF-8"?>
<svg width="54px" height="60px" viewBox="0 0 54 60" version="1.1" xmlns="http://www.w3.org/2000/svg" xmlns:xlink="http://www.w3.org/1999/xlink">
    <title>1</title>
    <desc>Created with Sketch.</desc>
    <g id="Page-1" stroke="none" stroke-width="1" fill="none" fill-rule="evenodd">
        <g id="1" transform="translate(1.000000, 0.000000)">
            <path d="M29.2413793,0.00919193886 C42.4178541,0.407232544 53,13.6821878 53,30 C53,46.3178122 42.4178541,59.5927675 29.2413793,59.9908081 L29.2413793,60 L0,60 L0,0 L29.2413793,0 L29.2413793,0.00919193886 Z" id="D" fill="#FF1744"></path>
            <g id="Signal" transform="translate(0.000000, 9.000000)" fill="#FFFFFF" fill-rule="nonzero" stroke="#FFFFFF">
                <path d="M1.10409688,20.6163241 C1.12742091,20.5699224 1.18269627,20.4721361 1.26810926,20.3404787 C1.4143034,20.1151318 1.58746518,19.8889628 1.78489612,19.6791414 C2.5967535,18.8163331 3.52492541,18.4984722 4.61229955,18.9913592 C5.40836196,19.3521998 5.90467133,20.0619752 6.41142985,21.3664131 C6.46800838,21.5120509 6.52394241,21.6617787 6.59783027,21.8639056 C6.61897842,21.9217582 6.64359788,21.9893695 6.68931133,22.1149334 C6.72634627,22.216545 6.75401096,22.2920011 6.78127801,22.365562 C7.40942701,24.0601786 7.95129922,24.7966967 9.06179609,24.7966973 C10.0211608,24.7966978 10.443839,23.4635303 10.878376,20.5665076 C11.1574389,18.7060178 11.3565456,16.769665 11.7452583,12.470619 C11.7633612,12.2703756 11.7633612,12.2703756 11.7814542,12.0702485 C12.1554749,7.93391865 12.3467098,6.06858342 12.6068154,4.31756683 C12.7666919,3.2412864 12.9303965,2.42847333 13.0988524,1.8886478 C13.1778436,1.63551673 13.2541858,1.45578623 13.3174062,1.35881503 C13.3320515,1.33635123 13.3381651,1.32940365 13.3307539,1.33494784 C13.2956871,1.3611806 13.244047,1.38024581 13.1852406,1.38024581 C13.0559317,1.38024582 12.9671188,1.32293257 12.9228728,1.26533145 C12.933061,1.27859482 12.9599549,1.33154242 12.9929939,1.418936 C13.0828708,1.65667506 13.1787679,2.04237989 13.2744276,2.56107157 C13.4628177,3.58257237 13.6446426,5.08046005 13.8245921,7.05203372 C14.1129038,10.2108517 14.3295747,13.5415465 14.7618977,20.9714133 C14.7784855,21.2565216 14.7784855,21.2565216 14.7950768,21.5417107 C15.2265196,28.9572577 15.4386454,32.2414699 15.7257823,35.4759496 C16.1431942,40.1779241 16.5125719,42.3726 17.2321266,42.8618416 C17.6892162,43.1726272 18.1264361,42.9280106 18.3922261,42.4377055 C18.5445585,42.1566965 18.6713155,41.7550352 18.7909168,41.2141828 C18.9968507,40.282923 19.1874791,38.8980193 19.3741022,37.0431647 C19.6672703,34.1293541 19.8820937,31.0502493 20.3174715,24.0255743 C20.3298569,23.8257258 20.3298569,23.8257258 20.3422428,23.6258616 C20.7504017,17.0399221 20.9484262,14.1503804 21.2160997,11.2797368 C21.5374719,7.83320486 21.9131279,5.65280822 22.1294706,5.45667983 C21.9908949,5.58230749 21.7603189,5.5428935 21.6737004,5.43233924 C21.712228,5.48151347 21.7861916,5.65922727 21.8653572,5.93958579 C22.0455694,6.57779258 22.2253924,7.62286484 22.4048037,9.05460448 C22.6966368,11.3834926 22.9246809,13.9989762 23.3602014,19.6323475 C23.3871373,19.9808635 23.3871373,19.9808635 23.4140868,20.3296487 C24.3119415,31.9479179 24.693611,35.3134885 25.636007,36.1678304 C26.2871672,36.7581486 26.8591949,36.2785063 27.2064685,35.3744698 C27.4259688,34.8030577 27.6261877,33.9368792 27.8257271,32.7537173 C28.1340104,30.9257632 28.3692643,28.9456564 28.8450577,24.4742006 C28.860024,24.3335366 28.860024,24.3335366 28.8749892,24.1928689 C29.6653288,16.7642332 30.1460132,13.5447486 30.5985806,13.1344674 C30.5153642,13.2099084 30.3455404,13.1661601 30.339451,13.1574518 C30.4505744,13.316366 30.5901611,13.6758542 30.7353973,14.2060348 C31.0011556,15.1761775 31.2493961,16.5158727 31.6135857,18.8139746 C31.6494311,19.0401652 31.6863355,19.2747796 31.7342498,19.5806711 C31.7427214,19.6347546 31.8298574,20.191604 31.8556122,20.3558361 C32.7780037,26.2377123 33.2132826,28.1167719 34.2541845,28.5885938 C35.1456153,28.9926632 35.7471392,28.2263238 36.2505487,26.7460985 C36.5650851,25.8212358 36.8066219,24.8034934 37.2664506,22.6227521 C37.29502,22.4872176 37.29502,22.4872176 37.323567,22.3517426 C37.7342246,20.4031864 37.937411,19.519296 38.1939455,18.66256 C38.4842765,17.692955 38.7662355,17.1409868 38.9186231,17.0719123 C38.9516577,17.0569383 39.0123798,17.0993034 39.1871617,17.4278288 C39.4044212,17.8361966 39.6163715,18.446516 39.916538,19.48022 C39.9775176,19.6902196 40.1919934,20.4420985 40.197235,20.4603601 C40.5804043,21.7952972 40.837749,22.5658518 41.1606326,23.2363361 C41.6370382,24.2256163 42.1999733,24.7966973 42.9382363,24.7966973 C43.7082687,24.7966973 44.3139096,24.2378363 44.8315423,23.2590867 C45.1851052,22.5905634 45.4592349,21.846007 45.8967761,20.4772477 C45.9072394,20.4445157 46.0710085,19.930419 46.1184727,19.7826971 C46.6834707,18.0242642 47.0599403,17.2204948 47.3877331,17.0719123 C47.588309,16.9809948 47.9125172,17.0777961 48.3421275,17.4056618 C48.7426515,17.7113297 49.1856176,18.1824031 49.6447584,18.7720354 C49.9646931,19.182898 50.2728557,19.6255344 50.5567807,20.0683344 C50.6561619,20.2233261 50.7452415,20.366991 50.8225593,20.4954426 C50.8681966,20.571262 50.89925,20.6242353 50.9142837,20.6504968 C51.0958277,20.9676263 51.4637498,21.0533178 51.7360607,20.8418942 C52.0083716,20.6304707 52.0819527,20.2019938 51.9004088,19.8848643 C51.8803928,19.8498995 51.8441497,19.7880732 51.7930466,19.7031733 C51.7091303,19.5637594 51.6131377,19.4089455 51.5064114,19.2424986 C51.2014575,18.7669026 50.8702346,18.2911429 50.5226996,17.8448358 C50.001781,17.175868 49.4895386,16.6311225 48.9917366,16.251215 C48.2742913,15.7036822 47.5896682,15.4992693 46.9578494,15.7856613 C46.1566641,16.148824 45.7234254,17.0737964 45.0084575,19.298978 C44.960296,19.4488701 44.7960134,19.9645786 44.786064,19.9957031 C44.0031811,22.4447941 43.4892992,23.4164515 42.9382363,23.4164515 C42.4926531,23.4164515 42.0042869,22.4023346 41.3212797,20.0227811 C41.3169304,20.0076286 41.1014484,19.252222 41.0392596,19.0380583 C40.7104506,17.9057157 40.4751252,17.2280869 40.1946391,16.7008766 C39.7552472,15.874982 39.1788587,15.4728427 38.4887394,15.7856613 C37.8868335,16.0584943 37.4800883,16.8547463 37.0748542,18.2080878 C36.8012854,19.1217126 36.5928062,20.0286272 36.1725466,22.0227448 C36.1439855,22.1582866 36.1439855,22.1582866 36.1154641,22.2935935 C35.66981,24.4071115 35.4355181,25.3943269 35.148646,26.2378455 C34.9848463,26.719482 34.8277624,27.0545679 34.69181,27.2277707 C34.6502016,27.2807796 34.6240258,27.3027006 34.6189425,27.3047434 C34.6411872,27.2958043 34.6716138,27.2966975 34.6840681,27.3023428 C34.5465256,27.2399973 34.228207,26.4586736 33.922332,25.1382385 C33.6484248,23.9558057 33.4154923,22.6201984 33.0215098,20.1078639 C32.995804,19.9439436 32.908699,19.3872932 32.9001909,19.3329761 C32.8521425,19.0262284 32.8151034,18.790758 32.7790844,18.5634714 C32.4055964,16.2066956 32.1507993,14.831616 31.8645124,13.7865343 C31.677615,13.1042705 31.4864392,12.611921 31.2584515,12.2858828 C30.8879687,11.7560667 30.3441562,11.6159752 29.870562,12.0453185 C28.9962899,12.8379019 28.6223511,15.3424349 27.6988014,24.0231523 C27.6838353,24.1638283 27.6838353,24.1638283 27.6688726,24.304459 C27.1970115,28.738959 26.9634563,30.7047677 26.6627643,32.48771 C26.4792742,33.575708 26.2982741,34.3587431 26.1246098,34.8108329 C26.0857914,34.9118866 26.0493645,34.990688 26.0175694,35.0454342 C25.9999794,35.0757214 25.9913559,35.086759 25.9991867,35.0801929 C26.1031201,34.9930453 26.2771783,34.9999489 26.3640256,35.0786815 C26.1573274,34.8912964 25.7978097,33.1140429 25.4781805,30.2955456 C25.2107051,27.9369416 25.004982,25.5176118 24.5944974,20.2059284 C24.5675506,19.8571763 24.5675506,19.8571763 24.5406083,19.5085776 C24.1028965,13.8468617 23.8738038,11.2193529 23.577563,8.85529045 C23.3889948,7.35047663 23.1980923,6.24101444 22.9912252,5.50841116 C22.8640395,5.05799328 22.7271959,4.72919625 22.5492007,4.50201465 C22.238419,4.10535288 21.7775508,4.02657344 21.4014521,4.3675308 C20.41672,5.26025295 20.0453415,9.24307328 19.1601361,23.5265016 C19.1477497,23.7263738 19.1477497,23.7263738 19.1353652,23.9262079 C18.7014336,30.9275493 18.4872536,33.9974328 18.1969737,36.8825363 C18.0161091,38.6801571 17.8325794,40.0134892 17.6431842,40.869959 C17.5517847,41.2832796 17.4617202,41.5686713 17.3900473,41.700887 C17.3866887,41.7070827 17.4023395,41.6883525 17.4590059,41.6566487 C17.5793018,41.5893453 17.7255055,41.5990385 17.8296861,41.6698732 C17.8694518,41.6969108 17.873699,41.7024699 17.8624438,41.6805455 C17.827434,41.6123485 17.7863388,41.5056527 17.7429108,41.3643773 C17.6466486,41.0512269 17.5486031,40.6014303 17.4514804,40.0243713 C17.2639737,38.9102913 17.0834599,37.3478888 16.9046804,35.3340099 C16.6195501,32.1221339 16.407941,28.8459223 15.9775472,21.4484039 C15.9609566,21.1632271 15.9609566,21.1632271 15.9443675,20.8780964 C15.5109029,13.4286118 15.293681,10.0894467 15.0031345,6.90614358 C14.5421402,1.85536887 14.199964,-2.18217874e-08 13.1852406,0 C12.2532425,2.00427548e-08 11.8565519,1.27121497 11.4389798,4.08228728 C11.1726274,5.87535711 10.9798641,7.75560074 10.6027899,11.9257 C10.5846923,12.1258779 10.5846923,12.1258779 10.5665933,12.3260783 C10.1810077,16.5905387 9.98347492,18.5115852 9.71087289,20.3290008 C9.54282079,21.4493904 9.36986119,22.2970603 9.1909514,22.8613589 C9.10651165,23.12769 9.02451439,23.3174599 8.95546543,23.4214604 C8.93780004,23.4480677 8.92855011,23.4583846 8.93243331,23.4555348 C8.96290637,23.4331715 9.00909143,23.4164515 9.06179665,23.4164515 C8.59910578,23.4164512 8.32219664,23.0400736 7.86940298,21.8185296 C7.84326919,21.748026 7.81645524,21.6748902 7.7802812,21.5756407 C7.73485897,21.4508758 7.70983855,21.3821633 7.688308,21.3232646 C7.61125208,21.1124712 7.55212811,20.9542044 7.49123922,20.7974714 C6.86889234,19.1954995 6.19080022,18.2257554 5.04218322,17.7051082 C3.48499163,16.9992615 2.10294624,17.4725554 0.985993738,18.6596062 C0.54857585,19.1244758 0.247016339,19.5893062 0.0812759126,19.919037 C-0.0840622709,20.2479676 0.0108709225,20.6707115 0.293315135,20.863262 C0.575759347,21.0558126 0.938758701,20.9452547 1.10409688,20.6163241 L1.10409688,20.6163241 Z" id="Shape"></path>
            </g>
        </g>
    </g>
</svg>